<?xml version="1.0" encoding="iso-8859-1"?>
<!-- Generator: Adobe Illustrator 19.0.0, SVG Export Plug-In . SVG Version: 6.00 Build 0)  -->
<svg version="1.1" id="Layer_1" xmlns="http://www.w3.org/2000/svg" xmlns:xlink="http://www.w3.org/1999/xlink" x="0px" y="0px"
	 viewBox="0 0 512.004 512.004" style="enable-background:new 0 0 512.004 512.004;" xml:space="preserve" fill="currentColor">
<g>
	<g>
		<g>
			<path d="M512.004,328.51c0-42.647-24.813-62.391-70.725-71.63c-4.015-0.808-8.191-1.551-13.104-2.352
				c-1.881-0.306-3.775-0.606-6.308-1.002c-3.078-0.479-4.664-0.726-6.064-0.946c-6.566-1.035-10.845-1.785-14.734-2.624
				c-7.806-1.682-23.401-9.915-44.703-23.411c3.952-9.322,2.134-20.509-5.463-28.107c-9.997-9.997-26.212-9.997-36.209,0
				l-0.066,0.066c-3.991-2.8-8.072-5.692-12.232-8.663c7.198-10.005,6.303-24.037-2.694-33.034c-9.997-9.997-26.212-9.997-36.209,0
				l-2.641,2.642c-10.908-8.152-21.198-15.96-30.103-22.809c-8.353-6.427-20.151-5.646-27.603,1.805l-17.527,17.527
				c-8.555,8.555-8.555,22.431,0,30.986l4.77,4.77c1.699,1.701,1.194,4.58-0.799,5.437c-39.996,17.179-71.368,10.811-95.745-10.185
				c-5.108-4.4-9.463-9.119-13.054-13.822c-2.109-2.762-3.459-4.839-4.051-5.886c-1.25-2.212-3.42-3.753-5.921-4.202
				c-20.362-3.657-33.187,26.695-46.882,84.906c-4.085,17.362-7.799,35.93-11.078,54.492c-1.147,6.493-2.157,12.524-3.023,17.94
				c-0.43,2.693-0.748,4.744-0.95,6.091l-8.425,24.54c-0.643,1.873-0.615,3.912,0.081,5.767c1.634,4.358,6.456,9.283,15.567,13.448
				c13.12,5.998,33.215,9.455,61.885,9.455h374.272c2.468-0.137,5.617-0.506,9.596-1.263c6.605-1.257,13.223-3.194,19.482-5.988
				c18.815-8.397,30.665-22.802,30.653-43.819C511.998,328.597,512.004,328.554,512.004,328.51z M43.268,240.858
				c14.701,9.535,31.518,17.657,50.598,24.734v11.717c0,1.948,0.225,3.842,0.637,5.665c2.577,11.414,12.769,19.937,24.964,19.937
				h51.2c0.023,0,0.045-0.002,0.068-0.002h4.42c8.06,0,15.066-4.518,18.623-11.159c7.55,1.553,18.386,3.789,22.324,4.626
				c11.744,2.496,20.711,4.583,28.567,6.707c10.316,2.785,19.291,8.738,25.983,16.893H27.201c0.733-4.493,1.559-9.367,2.474-14.54
				c3.229-18.273,6.885-36.541,10.889-53.558c0.676-2.872,1.358-5.665,2.043-8.416C42.826,242.587,43.046,241.718,43.268,240.858z
				 M110.933,277.311v-17.067c0-4.716,3.817-8.533,8.533-8.533h51.2c4.716,0,8.533,3.817,8.533,8.533v17.067
				c0,4.705-3.799,8.513-8.499,8.532h-51.235c-4.122,0-7.562-2.924-8.359-6.811C110.993,278.475,110.933,277.9,110.933,277.311z
				 M338.836,210.506c3.332,3.332,3.332,8.741,0,12.073l-0.406,0.406c-0.006,0.006-0.012,0.011-0.018,0.017l-17.681,17.673
				c-3.334,3.333-8.734,3.333-12.066,0.001c-2.291-2.291-3.007-5.559-2.148-8.46c0.391-1.318,1.106-2.561,2.147-3.601l3.491-3.492
				l9.489-9.489c0.013-0.013,0.024-0.029,0.038-0.042l5.083-5.085C330.095,207.174,335.504,207.174,338.836,210.506z
				 M287.636,168.875c3.332,3.332,3.332,8.741,0,12.073l-4.1,4.098c-0.012,0.012-0.026,0.022-0.038,0.034l-6.792,6.792l-7.176,7.173
				c-3.333,3.333-8.734,3.333-12.066,0.001c-0.625-0.625-1.132-1.322-1.523-2.065c-0.957-1.823-1.201-3.919-0.749-5.888
				c0.347-1.506,1.098-2.938,2.272-4.112l18.101-18.109C278.895,165.543,284.304,165.543,287.636,168.875z M65.437,181.225
				c3.914,5.527,9.643,12.117,17.272,18.688c29.101,25.064,67.317,32.822,113.619,12.935c13.214-5.678,16.258-23.043,6.135-33.181
				l-4.774-4.775c-1.89-1.89-1.89-4.961,0-6.85l17.527-17.527c1.396-1.396,3.577-1.54,5.13-0.346
				c8.428,6.482,18.075,13.808,28.316,21.476l-3.265,3.265c-3.125,3.125-5.272,6.856-6.444,10.816
				c-1.855,6.266-1.259,13.101,1.78,19.004c1.184,2.301,2.736,4.461,4.664,6.389c9.997,9.997,26.203,9.997,36.2,0l7.242-7.242
				l1.602-1.601c4.057,2.905,8.038,5.732,11.942,8.482l-2.065,2.066l-3.721,3.721c-2.187,2.187-3.896,4.672-5.126,7.324
				c-4.393,9.468-2.685,21.069,5.125,28.879c9.997,9.997,26.203,9.997,36.2,0l12.814-12.808
				c23.909,15.255,41.208,24.406,51.863,26.701c4.276,0.922,8.815,1.718,15.674,2.799c1.418,0.224,3.023,0.473,6.09,0.95
				c2.498,0.39,4.358,0.684,6.194,0.983c4.721,0.769,8.698,1.477,12.481,2.238c35.327,7.11,53.525,19.663,56.566,46.366H291.131
				c-8.981-16.341-23.919-28.485-42.013-33.37c-8.207-2.218-17.448-4.37-29.47-6.925c-4.152-0.882-15.809-3.286-23.381-4.844
				v-14.594c0-14.142-11.458-25.6-25.6-25.6h-51.2c-9.882,0-18.448,5.598-22.715,13.794c-18.694-7.147-34.866-15.342-48.688-24.924
				C54.742,201.078,61.317,185.731,65.437,181.225z M474.389,356.874c-4.94,2.205-10.323,3.78-15.718,4.807
				c-3.222,0.613-5.672,0.9-6.935,0.979l-373.741-0.017c-26.412,0-44.168-3.055-54.789-7.91c-2.129-0.973-3.77-1.931-4.995-2.83
				l5.102-14.859h470.523C491.333,345.924,484.618,352.309,474.389,356.874z"/>
			<path d="M136.533,277.311H153.6c4.713,0,8.533-3.82,8.533-8.533s-3.821-8.533-8.533-8.533h-17.067
				c-4.713,0-8.533,3.82-8.533,8.533S131.82,277.311,136.533,277.311z"/>
		</g>
	</g>
</g>
<g>
</g>
<g>
</g>
<g>
</g>
<g>
</g>
<g>
</g>
<g>
</g>
<g>
</g>
<g>
</g>
<g>
</g>
<g>
</g>
<g>
</g>
<g>
</g>
<g>
</g>
<g>
</g>
<g>
</g>
</svg>
